<svg width="21" height="18" viewBox="0 0 21 18" fill="none" xmlns="http://www.w3.org/2000/svg">
<path d="M16.625 11L16.625 0.499998L20.125 0.499998L20.125 11L16.625 11ZM13.125 0.499999C13.5891 0.499999 14.0342 0.684372 14.3624 1.01256C14.6906 1.34075 14.875 1.78587 14.875 2.25L14.875 11C14.875 11.4812 14.6825 11.9187 14.3587 12.2337L8.60125 18L7.67375 17.0725C7.4375 16.8363 7.28875 16.5125 7.28875 16.1538L7.315 15.8738L8.14625 11.875L2.625 11.875C2.16087 11.875 1.71575 11.6906 1.38757 11.3624C1.05938 11.0342 0.875001 10.5891 0.875001 10.125L0.875001 8.375C0.875001 8.1475 0.91875 7.9375 0.9975 7.73625L3.64 1.5675C3.9025 0.937498 4.52375 0.499999 5.25 0.499999L13.125 0.499999ZM13.125 2.25L5.22375 2.25L2.625 8.375L2.625 10.125L10.3163 10.125L9.3275 14.78L13.125 10.9737L13.125 2.25Z" fill="white"/>
</svg>
