<svg width="21" height="18" viewBox="0 0 21 18" fill="none" xmlns="http://www.w3.org/2000/svg">
<path d="M4.375 7L4.375 17.5H0.875L0.875 7H4.375ZM7.875 17.5C7.41087 17.5 6.96575 17.3156 6.63756 16.9874C6.30937 16.6593 6.125 16.2141 6.125 15.75L6.125 7C6.125 6.51875 6.3175 6.08125 6.64125 5.76625L12.3987 0L13.3262 0.9275C13.5625 1.16375 13.7112 1.4875 13.7112 1.84625L13.685 2.12625L12.8537 6.125H18.375C18.8391 6.125 19.2842 6.30938 19.6124 6.63756C19.9406 6.96575 20.125 7.41087 20.125 7.875V9.625C20.125 9.8525 20.0812 10.0625 20.0025 10.2638L17.36 16.4325C17.0975 17.0625 16.4762 17.5 15.75 17.5L7.875 17.5ZM7.875 15.75L15.7762 15.75L18.375 9.625V7.875L10.6837 7.875L11.6725 3.22L7.875 7.02625L7.875 15.75Z" fill="white"/>
</svg>
