<svg width="273" height="36" viewBox="0 0 273 36" fill="none" xmlns="http://www.w3.org/2000/svg">
<path d="M4.69897 13.1377C3.43592 15.1271 5.29436 17.3049 7.65429 17.3049C7.93495 17.3049 8.20285 17.3752 8.45799 17.5157C8.71313 17.6563 8.90449 17.8661 9.03206 18.1451L10.716 21.5061L15.4617 12.0343C15.7423 11.4486 16.2016 11.1558 16.8394 11.1558C17.4773 11.1558 17.9365 11.4486 18.2172 12.0343L20.3099 16.2111C20.6458 16.8815 21.3323 17.3049 22.0833 17.3049C23.2932 17.3049 24.2369 16.2204 23.8197 15.0871C23.2145 13.443 22.2145 12.0052 20.8197 10.7739C18.8295 9.01702 16.4822 8.13859 13.7777 8.13859C11.0732 8.13859 8.72589 9.01702 6.73577 10.7739C5.92268 11.4917 5.24375 12.2796 4.69897 13.1377ZM13.7777 29.5266C16.4822 29.5266 18.8295 28.6482 20.8197 26.8913C21.6328 26.1735 22.3117 25.3856 22.8565 24.5275C24.1195 22.5381 22.2611 20.3603 19.9011 20.3603C19.6205 20.3603 19.3526 20.29 19.0974 20.1495C18.8423 20.0089 18.6509 19.7991 18.5234 19.5201L16.8394 16.1591L12.0938 25.6309C11.8131 26.2166 11.3539 26.5094 10.716 26.5094C10.0781 26.5094 9.61889 26.2166 9.33823 25.6309L7.24551 21.4541C6.90966 20.7838 6.22312 20.3603 5.47213 20.3603C4.26227 20.3603 3.31851 21.4448 3.73571 22.5781C4.34093 24.2222 5.34096 25.66 6.73577 26.8913C8.72589 28.6482 11.0732 29.5266 13.7777 29.5266ZM13.7777 32.5821C11.8897 32.5821 10.1098 32.219 8.43809 31.4928C6.76639 30.7666 5.30595 29.7802 4.05677 28.5336C2.80657 27.286 1.81764 25.828 1.08997 24.1598C0.362305 22.4915 -0.00101843 20.7158 2.14406e-06 18.8326H3.06172C3.06172 21.7862 4.1078 24.3069 6.19998 26.3948C8.29215 28.4827 10.8181 29.5266 13.7777 29.5266C16.7374 29.5266 19.2633 28.4827 21.3555 26.3948C23.4476 24.3069 24.4937 21.7862 24.4937 18.8326H27.5554C27.5554 20.7168 27.1916 22.493 26.4639 24.1613C25.7363 25.8296 24.7478 27.287 23.4987 28.5336C22.2485 29.7812 20.7875 30.7682 19.1158 31.4943C17.4441 32.2205 15.6648 32.5831 13.7777 32.5821ZM2.14406e-06 18.8326C2.14406e-06 16.9484 0.363836 15.1722 1.0915 13.5039C1.81917 11.8357 2.8076 10.3782 4.05677 9.1316C5.30697 7.88397 6.76792 6.89706 8.43962 6.17089C10.1113 5.44471 11.8907 5.08213 13.7777 5.08315C15.3596 5.08315 16.8777 5.33777 18.332 5.84701C19.3541 6.20489 20.332 6.67595 21.2659 7.26018C21.9515 7.68916 22.8537 7.63645 23.4259 7.06537L23.4987 6.9928C24.0905 6.40218 25.05 6.40218 25.6419 6.9928C26.2337 7.58341 26.2337 8.54099 25.6419 9.1316L25.5691 9.20418C24.9969 9.77525 24.9441 10.6756 25.3739 11.3598C25.9594 12.2917 26.4314 13.2677 26.79 14.2876C27.3003 15.739 27.5554 17.254 27.5554 18.8326H24.4937C24.4937 15.879 23.4476 13.3583 21.3555 11.2704C19.2633 9.18253 16.7374 8.13859 13.7777 8.13859C10.8181 8.13859 8.29215 9.18253 6.19998 11.2704C4.1078 13.3583 3.06172 15.879 3.06172 18.8326H2.14406e-06ZM10.716 3.55543C9.87053 3.55543 9.18515 2.87145 9.18515 2.02772C9.18515 1.18398 9.87053 0.5 10.716 0.5H16.8394C17.6849 0.5 18.3703 1.18398 18.3703 2.02772C18.3703 2.87145 17.6849 3.55543 16.8394 3.55543H10.716ZM13.7777 29.5266C10.8181 29.5266 8.29215 28.4827 6.19998 26.3948C4.1078 24.3069 3.06172 21.7862 3.06172 18.8326C3.06172 15.879 4.1078 13.3583 6.19998 11.2704C8.29215 9.18253 10.8181 8.13859 13.7777 8.13859C16.7374 8.13859 19.2633 9.18253 21.3555 11.2704C23.4476 13.3583 24.4937 15.879 24.4937 18.8326C24.4937 21.7862 23.4476 24.3069 21.3555 26.3948C19.2633 28.4827 16.7374 29.5266 13.7777 29.5266Z" fill="white"/>
<path d="M47.9158 29.8933C46.1707 29.8933 44.599 29.6183 43.2008 29.0683C41.8026 28.5081 40.6136 27.7239 39.6339 26.7156C38.6541 25.7073 37.904 24.5157 37.3835 23.1408C36.863 21.7658 36.6028 20.2585 36.6028 18.6187C36.6028 16.429 37.0519 14.4837 37.95 12.7828C38.8481 11.082 40.1136 9.74778 41.7465 8.78023C43.3794 7.81267 45.3032 7.32889 47.5178 7.32889C48.2322 7.32889 48.9313 7.37982 49.6151 7.48167C50.2989 7.57333 50.9469 7.70573 51.5593 7.87887C52.1818 8.04183 52.7585 8.22516 53.2892 8.42885C53.8198 8.62236 54.2842 8.83115 54.6822 9.05521L54.3761 12.4467C53.5902 11.9681 52.8248 11.581 52.0798 11.2857C51.3348 10.9903 50.6101 10.7764 49.9059 10.644C49.2018 10.5015 48.518 10.4302 47.8546 10.4302C46.4054 10.4302 45.1144 10.7612 43.9815 11.4232C42.8487 12.075 41.9608 13.012 41.3178 14.2342C40.6749 15.4564 40.3534 16.9179 40.3534 18.6187C40.3534 19.7492 40.5167 20.8135 40.8433 21.8117C41.1801 22.7996 41.6801 23.6755 42.3435 24.4393C43.0069 25.193 43.8387 25.7888 44.8388 26.2268C45.839 26.6545 46.9973 26.8684 48.3139 26.8684C48.8242 26.8684 49.3293 26.8378 49.8294 26.7767C50.3397 26.7054 50.8449 26.5985 51.345 26.4559C51.8552 26.3133 52.3553 26.1198 52.8452 25.8754C53.3453 25.6309 53.8352 25.3407 54.3148 25.0046L54.5598 28.3656C54.1209 28.6202 53.6412 28.8493 53.1208 29.053C52.6003 29.2465 52.0543 29.4044 51.4827 29.5266C50.9112 29.6488 50.3244 29.7405 49.7222 29.8016C49.1201 29.8627 48.518 29.8933 47.9158 29.8933Z" fill="white"/>
<path d="M57.4859 29.8322C57.2919 29.8322 57.0827 29.822 56.8582 29.8016C56.6337 29.7812 56.4091 29.7507 56.1846 29.71C55.9703 29.6794 55.7764 29.6437 55.6029 29.603L55.7713 26.8378C55.9346 26.8684 56.0979 26.8939 56.2612 26.9142C56.4245 26.9244 56.552 26.9295 56.6439 26.9295C57.1746 26.9295 57.5981 26.7309 57.9145 26.3337C58.2309 25.9365 58.4758 25.4069 58.6493 24.7449C58.8228 24.0727 58.9504 23.3394 59.032 22.545C59.1239 21.7404 59.1953 20.9358 59.2463 20.1312C59.3076 19.1534 59.3688 18.1757 59.43 17.1979C59.5015 16.21 59.5678 15.2577 59.629 14.3411H70.9574C70.9574 15.0744 70.9574 15.7975 70.9574 16.5105C70.9574 17.2234 70.9574 17.972 70.9574 18.7562C70.9574 19.5404 70.9574 20.4011 70.9574 21.3381V22.8658C70.9574 24.1185 70.9574 25.2643 70.9574 26.3031C70.9574 27.342 70.9574 28.4165 70.9574 29.5266H67.6814C67.6814 28.4165 67.6814 27.342 67.6814 26.3031C67.6814 25.2643 67.6814 24.1185 67.6814 22.8658V21.3381C67.6814 20.452 67.6814 19.6525 67.6814 18.9395C67.6814 18.2266 67.6814 17.5442 67.6814 16.8924C67.6814 16.2406 67.6814 15.5633 67.6814 14.8605L69.6255 16.9535H60.9303L62.553 14.8605C62.502 15.5327 62.4509 16.2355 62.3999 16.9688C62.3489 17.7021 62.2978 18.4354 62.2468 19.1687C62.1958 19.902 62.1397 20.62 62.0784 21.3228C61.9968 22.494 61.8794 23.594 61.7263 24.6227C61.5834 25.6513 61.3589 26.5578 61.0527 27.342C60.7568 28.116 60.323 28.7271 59.7515 29.1753C59.18 29.6132 58.4248 29.8322 57.4859 29.8322Z" fill="white"/>
<path d="M81.428 29.8933C80.1217 29.8933 78.9786 29.6743 77.9989 29.2364C77.0191 28.7984 76.1976 28.2077 75.5342 27.4642C74.881 26.7105 74.3911 25.855 74.0646 24.8976C73.738 23.9301 73.5747 22.9167 73.5747 21.8575C73.5747 20.34 73.8809 18.9905 74.4932 17.809C75.1055 16.6174 75.9934 15.6804 77.1569 14.998C78.3203 14.3055 79.7236 13.9592 81.3667 13.9592C82.622 13.9592 83.7345 14.1578 84.704 14.555C85.6736 14.9522 86.4849 15.5124 87.1381 16.2355C87.8015 16.9484 88.3015 17.7836 88.6383 18.7409C88.9751 19.6983 89.1435 20.7372 89.1435 21.8575C89.1435 23.375 88.8373 24.7398 88.225 25.9518C87.6126 27.1638 86.7247 28.1262 85.5613 28.8392C84.4081 29.5419 83.0303 29.8933 81.428 29.8933ZM81.4127 27.1434C82.3924 27.1434 83.2089 26.8939 83.862 26.3948C84.5152 25.8856 85 25.2286 85.3164 24.424C85.6429 23.6195 85.8062 22.7639 85.8062 21.8575C85.8062 20.8085 85.6225 19.902 85.2551 19.1381C84.8979 18.3641 84.3876 17.7683 83.7243 17.3507C83.0711 16.923 82.2955 16.7091 81.3974 16.7091C80.4278 16.7091 79.6063 16.9382 78.9327 17.3966C78.2693 17.8447 77.7641 18.4609 77.4171 19.2451C77.0803 20.0191 76.9119 20.8899 76.9119 21.8575C76.9119 22.7639 77.0752 23.6195 77.4018 24.424C77.7386 25.2286 78.2387 25.8856 78.9021 26.3948C79.5756 26.8939 80.4125 27.1434 81.4127 27.1434Z" fill="white"/>
<path d="M91.7661 29.5266C91.7661 28.4063 91.7661 27.3267 91.7661 26.2879C91.7661 25.249 91.7661 24.0981 91.7661 22.8352V21.3075C91.7661 20.3705 91.7661 19.515 91.7661 18.7409C91.7661 17.9669 91.7661 17.2234 91.7661 16.5105C91.7661 15.7975 91.7661 15.0744 91.7661 14.3411C92.7458 14.3411 93.9093 14.3411 95.2564 14.3411C96.6138 14.3411 97.9303 14.3411 99.206 14.3411C100.472 14.3411 101.482 14.4939 102.237 14.7994C102.992 15.0948 103.533 15.5124 103.86 16.0522C104.186 16.5818 104.35 17.203 104.35 17.916C104.35 18.8733 104.105 19.6423 103.615 20.2228C103.125 20.7932 102.528 21.1802 101.824 21.3839V21.6283C102.303 21.7302 102.763 21.9135 103.202 22.1783C103.651 22.4431 104.018 22.825 104.304 23.3241C104.6 23.8231 104.748 24.4852 104.748 25.3101C104.748 26.1249 104.564 26.8531 104.197 27.4948C103.829 28.1262 103.186 28.6253 102.268 28.9919C101.359 29.3484 100.074 29.5266 98.41 29.5266C97.073 29.5266 95.8381 29.5266 94.7053 29.5266C93.5725 29.5266 92.5927 29.5266 91.7661 29.5266ZM94.9502 26.9753H98.0579C98.905 26.9753 99.5734 26.904 100.063 26.7615C100.563 26.6087 100.915 26.3846 101.12 26.0893C101.334 25.7837 101.441 25.4069 101.441 24.9588C101.441 24.2458 101.176 23.7366 100.645 23.431C100.125 23.1153 99.3438 22.9574 98.3028 22.9574H94.047V20.6811H98.0426C98.7774 20.6811 99.3591 20.5997 99.7878 20.4367C100.227 20.2636 100.538 20.0293 100.722 19.734C100.915 19.4284 101.012 19.077 101.012 18.6798C101.012 18.0382 100.788 17.5799 100.339 17.3049C99.9 17.0299 99.2673 16.8924 98.4406 16.8924H94.9502C94.9502 17.6461 94.9502 18.3692 94.9502 19.0618C94.9502 19.7441 94.9502 20.4927 94.9502 21.3075V22.8352C94.9502 23.5889 94.9502 24.2916 94.9502 24.9435C94.9502 25.5953 94.9502 26.2726 94.9502 26.9753Z" fill="white"/>
<path d="M114.304 29.8933C112.998 29.8933 111.855 29.6743 110.875 29.2364C109.895 28.7984 109.074 28.2077 108.411 27.4642C107.757 26.7105 107.267 25.855 106.941 24.8976C106.614 23.9301 106.451 22.9167 106.451 21.8575C106.451 20.34 106.757 18.9905 107.37 17.809C107.982 16.6174 108.87 15.6804 110.033 14.998C111.197 14.3055 112.6 13.9592 114.243 13.9592C115.498 13.9592 116.611 14.1578 117.58 14.555C118.55 14.9522 119.361 15.5124 120.014 16.2355C120.678 16.9484 121.178 17.7836 121.515 18.7409C121.851 19.6983 122.02 20.7372 122.02 21.8575C122.02 23.375 121.714 24.7398 121.101 25.9518C120.489 27.1638 119.601 28.1262 118.438 28.8392C117.284 29.5419 115.907 29.8933 114.304 29.8933ZM114.289 27.1434C115.269 27.1434 116.085 26.8939 116.738 26.3948C117.392 25.8856 117.876 25.2286 118.193 24.424C118.519 23.6195 118.683 22.7639 118.683 21.8575C118.683 20.8085 118.499 19.902 118.131 19.1381C117.774 18.3641 117.264 17.7683 116.601 17.3507C115.947 16.923 115.172 16.7091 114.274 16.7091C113.304 16.7091 112.483 16.9382 111.809 17.3966C111.146 17.8447 110.64 18.4609 110.293 19.2451C109.957 20.0191 109.788 20.8899 109.788 21.8575C109.788 22.7639 109.952 23.6195 110.278 24.424C110.615 25.2286 111.115 25.8856 111.778 26.3948C112.452 26.8939 113.289 27.1434 114.289 27.1434Z" fill="white"/>
<path d="M124.642 29.5266C124.642 28.4063 124.642 27.3267 124.642 26.2879C124.642 25.249 124.642 24.0981 124.642 22.8352V21.3075C124.642 20.3705 124.642 19.515 124.642 18.7409C124.642 17.9669 124.642 17.2234 124.642 16.5105C124.642 15.7975 124.642 15.0744 124.642 14.3411C125.622 14.3411 126.786 14.3411 128.133 14.3411C129.49 14.3411 130.807 14.3411 132.082 14.3411C133.348 14.3411 134.358 14.4939 135.113 14.7994C135.869 15.0948 136.41 15.5124 136.736 16.0522C137.063 16.5818 137.226 17.203 137.226 17.916C137.226 18.8733 136.981 19.6423 136.491 20.2228C136.001 20.7932 135.404 21.1802 134.7 21.3839V21.6283C135.18 21.7302 135.639 21.9135 136.078 22.1783C136.527 22.4431 136.894 22.825 137.18 23.3241C137.476 23.8231 137.624 24.4852 137.624 25.3101C137.624 26.1249 137.44 26.8531 137.073 27.4948C136.706 28.1262 136.063 28.6253 135.144 28.9919C134.236 29.3484 132.95 29.5266 131.286 29.5266C129.949 29.5266 128.714 29.5266 127.582 29.5266C126.449 29.5266 125.469 29.5266 124.642 29.5266ZM127.827 26.9753H130.934C131.781 26.9753 132.45 26.904 132.94 26.7615C133.44 26.6087 133.792 26.3846 133.996 26.0893C134.21 25.7837 134.317 25.4069 134.317 24.9588C134.317 24.2458 134.052 23.7366 133.521 23.431C133.001 23.1153 132.22 22.9574 131.179 22.9574H126.923V20.6811H130.919C131.654 20.6811 132.235 20.5997 132.664 20.4367C133.103 20.2636 133.414 20.0293 133.598 19.734C133.792 19.4284 133.889 19.077 133.889 18.6798C133.889 18.0382 133.664 17.5799 133.215 17.3049C132.776 17.0299 132.144 16.8924 131.317 16.8924H127.827C127.827 17.6461 127.827 18.3692 127.827 19.0618C127.827 19.7441 127.827 20.4927 127.827 21.3075V22.8352C127.827 23.5889 127.827 24.2916 127.827 24.9435C127.827 25.5953 127.827 26.2726 127.827 26.9753Z" fill="white"/>
<path d="M140.139 35.5C140.139 34.3899 140.139 33.295 140.139 32.2154C140.139 31.146 140.139 29.9849 140.139 28.7322V21.3381C140.139 20.2076 140.139 19.0567 140.139 17.8854C140.139 16.704 140.139 15.5226 140.139 14.3411L143.078 14.1578L143.17 16.1744H143.476C143.772 15.7466 144.15 15.3647 144.609 15.0286C145.068 14.6925 145.589 14.4328 146.17 14.2495C146.762 14.0559 147.405 13.9592 148.099 13.9592C149.477 13.9592 150.64 14.3055 151.59 14.998C152.549 15.6906 153.274 16.6378 153.763 17.8396C154.263 19.0414 154.514 20.3909 154.514 21.888C154.514 23.3037 154.279 24.6227 153.809 25.8448C153.35 27.0568 152.651 28.0346 151.712 28.778C150.773 29.5215 149.589 29.8933 148.16 29.8933C147.497 29.8933 146.89 29.8067 146.339 29.6336C145.798 29.4604 145.303 29.2109 144.854 28.885C144.415 28.5591 144.017 28.167 143.66 27.7086H143.415V28.9003C143.415 30.0715 143.415 31.1664 143.415 32.1849C143.415 33.2135 143.415 34.2829 143.415 35.3931L140.139 35.5ZM147.043 27.0364C147.992 27.0364 148.773 26.7971 149.385 26.3184C149.997 25.8295 150.447 25.1981 150.732 24.424C151.018 23.6398 151.161 22.8047 151.161 21.9186C151.161 20.9918 151.008 20.1464 150.702 19.3826C150.406 18.6085 149.952 17.9924 149.339 17.534C148.727 17.0757 147.946 16.8466 146.997 16.8466C146.528 16.8466 146.068 16.9179 145.619 17.0605C145.18 17.1929 144.772 17.3966 144.395 17.6715C144.017 17.9363 143.69 18.2724 143.415 18.6798V24.8518C143.68 25.2999 143.986 25.687 144.333 26.0129C144.68 26.3388 145.078 26.5934 145.527 26.7767C145.976 26.9499 146.482 27.0364 147.043 27.0364Z" fill="white"/>
<path d="M164.493 29.878C162.625 29.878 161.089 29.5317 159.885 28.8392C158.681 28.1466 157.788 27.1994 157.206 25.9976C156.634 24.7958 156.349 23.4158 156.349 21.8575C156.349 20.3196 156.624 18.9548 157.175 17.7632C157.737 16.5716 158.553 15.6448 159.625 14.9828C160.696 14.3106 161.992 13.9745 163.513 13.9745C164.83 13.9745 165.962 14.224 166.912 14.723C167.861 15.2119 168.59 15.9452 169.101 16.923C169.611 17.9007 169.866 19.1127 169.866 20.5589C169.866 20.9459 169.856 21.2973 169.835 21.6131C169.825 21.9186 169.795 22.2241 169.744 22.5297L166.881 21.277C166.901 21.1242 166.917 20.9765 166.927 20.8339C166.937 20.6811 166.942 20.5386 166.942 20.4062C166.942 19.1534 166.626 18.1859 165.993 17.5035C165.37 16.8109 164.554 16.4646 163.544 16.4646C162.758 16.4646 162.074 16.6785 161.492 17.1063C160.911 17.534 160.456 18.1197 160.13 18.8632C159.813 19.6066 159.655 20.4622 159.655 21.4297V21.9186C159.655 22.9982 159.839 23.925 160.206 24.699C160.584 25.4731 161.156 26.0689 161.921 26.4865C162.697 26.904 163.671 27.1128 164.845 27.1128C165.294 27.1128 165.784 27.0772 166.315 27.0059C166.855 26.9244 167.396 26.8022 167.937 26.6392C168.478 26.4763 168.988 26.2675 169.468 26.0129L169.591 28.8544C169.203 29.0581 168.749 29.2364 168.228 29.3891C167.708 29.5419 167.131 29.659 166.498 29.7405C165.876 29.8322 165.207 29.878 164.493 29.878ZM157.665 22.5297V20.2992L167.784 20.177L169.744 20.9867V22.5297H157.665Z" fill="white"/>
<path d="M171.453 29.5266C171.576 28.4165 171.693 27.3267 171.805 26.2573C171.928 25.1879 172.045 24.1236 172.158 23.0644L172.387 20.9867C172.51 19.8867 172.632 18.7817 172.755 17.6715C172.877 16.5512 173 15.4411 173.122 14.3411H176.704C177.082 15.2476 177.459 16.1642 177.837 17.091C178.225 18.0076 178.603 18.9192 178.97 19.8256L181.174 25.1421H181.45L183.624 19.8256C184.001 18.8988 184.374 17.9771 184.741 17.0605C185.119 16.1438 185.496 15.2374 185.874 14.3411H189.395C189.518 15.4207 189.64 16.5308 189.762 17.6715C189.895 18.8021 190.023 19.9122 190.145 21.002L190.375 23.1102C190.487 24.1287 190.604 25.1828 190.727 26.2726C190.849 27.3522 190.972 28.4369 191.094 29.5266H188.017C187.895 28.4369 187.772 27.342 187.65 26.242C187.538 25.1319 187.425 24.037 187.313 22.9574L186.869 18.7715H186.609L184.894 23.2172C184.496 24.2662 184.093 25.3152 183.685 26.3643C183.287 27.4133 182.884 28.4674 182.476 29.5266H180.149C179.73 28.4674 179.312 27.4184 178.893 26.3795C178.485 25.3407 178.077 24.3069 177.669 23.2783L175.878 18.7715H175.602L175.158 22.8963C175.036 24.0065 174.913 25.1166 174.791 26.2268C174.678 27.3267 174.561 28.4267 174.439 29.5266H171.453Z" fill="white"/>
<path d="M200.808 29.878C198.94 29.878 197.404 29.5317 196.2 28.8392C194.995 28.1466 194.102 27.1994 193.521 25.9976C192.949 24.7958 192.663 23.4158 192.663 21.8575C192.663 20.3196 192.939 18.9548 193.49 17.7632C194.051 16.5716 194.868 15.6448 195.939 14.9828C197.011 14.3106 198.307 13.9745 199.828 13.9745C201.144 13.9745 202.277 14.224 203.226 14.723C204.175 15.2119 204.905 15.9452 205.415 16.923C205.926 17.9007 206.181 19.1127 206.181 20.5589C206.181 20.9459 206.171 21.2973 206.15 21.6131C206.14 21.9186 206.109 22.2241 206.058 22.5297L203.196 21.277C203.216 21.1242 203.231 20.9765 203.242 20.8339C203.252 20.6811 203.257 20.5386 203.257 20.4062C203.257 19.1534 202.941 18.1859 202.308 17.5035C201.685 16.8109 200.869 16.4646 199.858 16.4646C199.073 16.4646 198.389 16.6785 197.807 17.1063C197.225 17.534 196.771 18.1197 196.445 18.8632C196.128 19.6066 195.97 20.4622 195.97 21.4297V21.9186C195.97 22.9982 196.154 23.925 196.521 24.699C196.899 25.4731 197.47 26.0689 198.236 26.4865C199.011 26.904 199.986 27.1128 201.16 27.1128C201.609 27.1128 202.099 27.0772 202.629 27.0059C203.17 26.9244 203.711 26.8022 204.252 26.6392C204.793 26.4763 205.303 26.2675 205.783 26.0129L205.905 28.8544C205.518 29.0581 205.063 29.2364 204.543 29.3891C204.022 29.5419 203.446 29.659 202.813 29.7405C202.19 29.8322 201.522 29.878 200.808 29.878ZM193.98 22.5297V20.2992L204.099 20.177L206.058 20.9867V22.5297H193.98Z" fill="white"/>
<path d="M208.702 29.5266C208.702 28.4165 208.702 27.342 208.702 26.3031C208.702 25.2643 208.702 24.1185 208.702 22.8658V21.3381C208.702 20.4011 208.702 19.5404 208.702 18.7562C208.702 17.972 208.702 17.2234 208.702 16.5105C208.702 15.7975 208.702 15.0744 208.702 14.3411L211.932 14.2189C211.932 14.9624 211.932 15.7008 211.932 16.4341C211.932 17.1572 211.932 17.916 211.932 18.7104C211.932 19.5048 211.932 20.3807 211.932 21.3381V22.8658C211.932 24.1185 211.932 25.2643 211.932 26.3031C211.932 27.342 211.932 28.4165 211.932 29.5266H208.702ZM210.646 23.1713V20.5895H220.046V23.1713H210.646ZM218.653 29.5266C218.653 28.4165 218.653 27.342 218.653 26.3031C218.653 25.2643 218.653 24.1185 218.653 22.8658V21.3381C218.653 20.4011 218.653 19.5404 218.653 18.7562C218.653 17.972 218.653 17.2234 218.653 16.5105C218.653 15.7975 218.653 15.0744 218.653 14.3411H221.883C221.883 15.0744 221.883 15.7975 221.883 16.5105C221.883 17.2234 221.883 17.972 221.883 18.7562C221.883 19.5404 221.883 20.4011 221.883 21.3381V22.8658C221.883 24.1185 221.883 25.2643 221.883 26.3031C221.883 27.342 221.883 28.4165 221.883 29.5266H218.653Z" fill="white"/>
<path d="M225.305 29.5266C225.305 28.4165 225.305 27.342 225.305 26.3031C225.305 25.2643 225.305 24.1185 225.305 22.8658V21.3381C225.305 20.4011 225.305 19.5404 225.305 18.7562C225.305 17.972 225.305 17.2234 225.305 16.5105C225.305 15.7975 225.305 15.0744 225.305 14.3411L228.535 14.2189C228.535 14.9624 228.535 15.7008 228.535 16.4341C228.535 17.1572 228.535 17.916 228.535 18.7104C228.535 19.5048 228.535 20.3807 228.535 21.3381V22.8658C228.535 24.1185 228.535 25.2643 228.535 26.3031C228.535 27.342 228.535 28.4165 228.535 29.5266H225.305ZM227.249 23.1713V20.5895H236.648V23.1713H227.249ZM235.255 29.5266C235.255 28.4165 235.255 27.342 235.255 26.3031C235.255 25.2643 235.255 24.1185 235.255 22.8658V21.3381C235.255 20.4011 235.255 19.5404 235.255 18.7562C235.255 17.972 235.255 17.2234 235.255 16.5105C235.255 15.7975 235.255 15.0744 235.255 14.3411H238.485C238.485 15.0744 238.485 15.7975 238.485 16.5105C238.485 17.2234 238.485 17.972 238.485 18.7562C238.485 19.5404 238.485 20.4011 238.485 21.3381V22.8658C238.485 24.1185 238.485 25.2643 238.485 26.3031C238.485 27.342 238.485 28.4165 238.485 29.5266H235.255Z" fill="white"/>
<path d="M241.907 29.5266C241.907 28.4063 241.907 27.3318 241.907 26.3031C241.907 25.2745 241.907 24.1287 241.907 22.8658V21.3381C241.907 20.4011 241.907 19.5455 241.907 18.7715C241.907 17.9873 241.907 17.2387 241.907 16.5258C241.907 15.8026 241.907 15.0744 241.907 14.3411L245.061 14.2342C245.061 14.9369 245.061 15.6346 245.061 16.3271C245.061 17.0095 245.061 17.7276 245.061 18.4812C245.061 19.2247 245.061 20.0446 245.061 20.9409V24.974H245.29L248.138 20.3298C248.76 19.3215 249.378 18.3183 249.99 17.3202C250.603 16.3119 251.21 15.3189 251.812 14.3411H255.226C255.226 15.0744 255.226 15.8026 255.226 16.5258C255.226 17.2387 255.226 17.9873 255.226 18.7715C255.226 19.5455 255.226 20.4011 255.226 21.3381V22.8658C255.226 24.1287 255.226 25.2745 255.226 26.3031C255.226 27.3318 255.226 28.4063 255.226 29.5266H252.088C252.088 28.4267 252.088 27.3675 252.088 26.349C252.088 25.3305 252.088 24.2051 252.088 22.9727V18.8784H251.843L249.041 23.4616C248.419 24.4801 247.796 25.4985 247.173 26.517C246.561 27.5253 245.949 28.5285 245.336 29.5266H241.907Z" fill="white"/>
<path d="M258.659 29.5266C258.659 28.4165 258.659 27.342 258.659 26.3031C258.659 25.2643 258.659 24.1185 258.659 22.8658V21.2158C258.659 20.2788 258.659 19.4284 258.659 18.6646C258.659 17.9007 258.659 17.1725 258.659 16.4799C258.659 15.7874 258.659 15.0744 258.659 14.3411L261.935 14.2189C261.935 15.329 261.935 16.4188 261.935 17.4882C261.935 18.5576 261.935 19.6779 261.935 20.8492V23.4463C261.935 24.5463 261.935 25.5749 261.935 26.5323C261.935 27.4897 261.935 28.4878 261.935 29.5266H258.659ZM268.625 29.5266C268.023 28.8544 267.416 28.1873 266.804 27.5253C266.201 26.8531 265.599 26.1911 264.997 25.5393L262.701 23.0185H261.599V20.7575H262.823L264.783 18.4965C265.385 17.8039 265.987 17.1114 266.589 16.4188C267.191 15.7161 267.788 15.0235 268.38 14.3411H272.299C271.473 15.2374 270.651 16.1336 269.835 17.0299C269.018 17.9262 268.207 18.8224 267.401 19.7187L264.967 22.3616L264.844 20.8492L267.722 24.1032C268.559 25.0097 269.401 25.9161 270.248 26.8226C271.095 27.729 271.932 28.6304 272.759 29.5266H268.625Z" fill="white"/>
</svg>
